<svg width="61" height="64" viewBox="0 0 61 64" fill="none" xmlns="http://www.w3.org/2000/svg">
<g clip-path="url(#clip0_9265_19843)">
<path d="M58.9352 25.6804L31.0398 0.863267C30.0141 -0.303018 28.1912 -0.284732 27.1884 0.900983L0.606059 25.5067C-0.788798 27.1564 0.378066 29.6838 2.53807 29.6924L5.49178 29.7038C6.01407 29.7061 6.43577 30.1307 6.43349 30.653L6.31578 61.0673C6.31063 62.4718 7.44436 63.6147 8.8495 63.6204L50.6426 63.7827C52.0472 63.7878 53.1901 62.6536 53.1958 61.2496L53.3118 31.2998C53.3146 30.521 53.9483 29.8924 54.7272 29.8953L57.0164 29.9044C59.2089 29.9124 60.3838 27.3273 58.9352 25.6804Z" fill="#0B29C6"/>
<path d="M42.9023 41.8792L30.0091 54.6724L17.216 41.7792C13.1817 38.1809 12.8326 32.2255 15.7743 28.7061C19.068 24.7655 26.0126 24.4478 30.1091 28.9861C33.6086 25.5495 38.7554 25.0284 42.0509 27.2684C46.1846 30.0775 47.2286 37.1107 42.9023 41.8792Z" fill="white"/>
<mask id="mask0_9265_19843" style="mask-type:luminance" maskUnits="userSpaceOnUse" x="13" y="25" width="33" height="30">
<path d="M42.9023 41.8792L30.0091 54.6724L17.216 41.7792C13.1817 38.1809 12.8326 32.2255 15.7743 28.7061C19.068 24.7655 26.0126 24.4478 30.1091 28.9861C33.6086 25.5495 38.7554 25.0284 42.0509 27.2684C46.1846 30.0775 47.2286 37.1107 42.9023 41.8792Z" fill="white"/>
</mask>
<g mask="url(#mask0_9265_19843)">
<path d="M25.5603 47.7111C25.5443 51.8774 23.8632 55.2488 21.8055 55.2408C19.7478 55.2328 18.0929 51.8488 18.1095 47.6826C18.1255 43.5163 19.8066 40.1448 21.8643 40.1528C23.9215 40.1603 25.5763 43.5443 25.5603 47.7111Z" fill="#6981FF"/>
<path d="M24.9281 36.0432C24.9219 37.7278 23.551 39.0878 21.8664 39.0815C20.1819 39.0752 18.8219 37.7043 18.8281 36.0198C18.8344 34.3352 20.2053 32.9746 21.8899 32.9815C23.5744 32.9878 24.935 34.3586 24.9281 36.0432Z" fill="#6981FF"/>
<path d="M34.201 53.8449C34.185 58.0112 32.5038 61.3826 30.4461 61.3746C28.3884 61.3666 26.7336 57.9826 26.7501 53.8164C26.7661 49.6501 28.4473 46.2786 30.505 46.2866C32.5627 46.2946 34.2176 49.6786 34.201 53.8449Z" fill="#6981FF"/>
<path d="M33.5688 42.1771C33.5625 43.8616 32.1916 45.2222 30.507 45.2153C28.8225 45.2085 27.4625 43.8376 27.4688 42.1531C27.4751 40.4685 28.8465 39.1079 30.5305 39.1148C32.2151 39.1216 33.5751 40.4925 33.5688 42.1771Z" fill="#6981FF"/>
<path d="M42.8807 47.778C42.8647 51.9443 41.1835 55.3157 39.1258 55.3077C37.0681 55.2997 35.4132 51.9157 35.4298 47.7495C35.4458 43.5832 37.127 40.2117 39.1847 40.2197C41.2424 40.2277 42.8972 43.6117 42.8807 47.778Z" fill="#6981FF"/>
<path d="M42.249 36.1101C42.2427 37.7947 40.8713 39.1547 39.1867 39.1484C37.5022 39.1421 36.1416 37.7712 36.1485 36.0867C36.1547 34.4021 37.5256 33.0415 39.2102 33.0484C40.8953 33.0547 42.2553 34.4255 42.249 36.1101Z" fill="#6981FF"/>
</g>
</g>
<defs>
<clipPath id="clip0_9265_19843">
<rect width="60" height="64" fill="white" transform="translate(0.5)"/>
</clipPath>
</defs>
</svg>
