<svg width="65" height="60" viewBox="0 0 65 60" fill="none" xmlns="http://www.w3.org/2000/svg">
<g clip-path="url(#clip0_9265_19827)">
<path fill-rule="evenodd" clip-rule="evenodd" d="M26.0677 0.976562C27.8349 0.976562 29.2677 2.40937 29.2677 4.17657C29.2677 5.94426 27.8349 7.37706 26.0677 7.37706C24.3005 7.37706 22.8672 5.94426 22.8672 4.17657C22.8677 2.40937 24.3005 0.976562 26.0677 0.976562Z" fill="#0B29C6"/>
<path fill-rule="evenodd" clip-rule="evenodd" d="M31.2416 24.9026C22.6572 18.8529 16.5072 8.78553 17.5436 1.25635C18.9129 4.88996 21.1281 9.87651 27.933 11.411C30.2881 7.25549 33.6235 3.01213 38.3218 1.25635C33.5635 7.18503 32.7652 15.2798 31.2416 24.9026Z" fill="white"/>
<path fill-rule="evenodd" clip-rule="evenodd" d="M4.02296 20.3432C4.90656 18.8127 6.86377 18.2883 8.39431 19.1719C9.92485 20.0555 10.4488 22.0127 9.56566 23.5432C8.68206 25.0738 6.72485 25.5982 5.19431 24.7146C3.66377 23.831 3.13936 21.8738 4.02296 20.3432Z" fill="#0B29C6"/>
<path fill-rule="evenodd" clip-rule="evenodd" d="M27.327 27.8253C17.796 32.2354 6.0026 32.5271 0 27.865C3.83157 28.4961 9.25767 29.0711 13.9887 23.9451C11.5676 19.8273 9.5608 14.8175 10.3888 9.87061C13.1443 16.9558 19.7552 21.6947 27.327 27.8253Z" fill="#6981FF"/>
<path fill-rule="evenodd" clip-rule="evenodd" d="M9.70265 48.9319C8.81905 47.4014 9.34345 45.4442 10.874 44.5606C12.4045 43.677 14.3618 44.2014 15.2453 45.7319C16.1289 47.2624 15.6045 49.2197 14.074 50.1033C12.5435 50.9873 10.5862 50.4629 9.70265 48.9319Z" fill="#0B29C6"/>
<path fill-rule="evenodd" clip-rule="evenodd" d="M27.8382 32.4878C26.8916 42.9471 21.2477 53.3061 14.2092 56.1742C16.6714 53.1712 19.8823 48.7597 17.809 42.0997C13.0323 42.1374 7.69008 41.3704 3.82031 38.1798C11.3336 39.3363 18.7432 35.9805 27.8382 32.4878Z" fill="white"/>
<path fill-rule="evenodd" clip-rule="evenodd" d="M37.4422 58.5489C35.675 58.5489 34.2422 57.1161 34.2422 55.3489C34.2422 53.5812 35.675 52.1489 37.4422 52.1489C39.2094 52.1489 40.6422 53.5817 40.6422 55.3489C40.6422 57.1166 39.2094 58.5489 37.4422 58.5489Z" fill="#0B29C6"/>
<path fill-rule="evenodd" clip-rule="evenodd" d="M32.2677 34.623C40.8521 40.6723 47.0016 50.7396 45.9657 58.2688C44.5964 54.6352 42.3812 49.6487 35.5768 48.1141C33.2212 52.2702 29.8858 56.5125 25.1875 58.2688C29.9458 52.3401 30.7446 44.2459 32.2677 34.623Z" fill="#6981FF"/>
<path fill-rule="evenodd" clip-rule="evenodd" d="M59.4879 39.6755C58.6043 41.2061 56.6471 41.7305 55.1166 40.8469C53.586 39.9633 53.0611 38.0056 53.9447 36.4756C54.8288 34.945 56.786 34.4206 58.3161 35.3042C59.8471 36.1878 60.3715 38.145 59.4879 39.6755Z" fill="#0B29C6"/>
<path fill-rule="evenodd" clip-rule="evenodd" d="M36.1797 32.1938C45.7112 27.7843 57.5046 27.4921 63.5067 32.1542C59.6751 31.5231 54.249 30.9481 49.5185 36.0745C51.9396 40.1919 53.9464 45.2022 53.1179 50.1486C50.3629 43.0634 43.7515 38.3244 36.1797 32.1938Z" fill="white"/>
<path fill-rule="evenodd" clip-rule="evenodd" d="M53.8 10.5932C54.6836 12.1238 54.1592 14.081 52.6287 14.9646C51.0981 15.8482 49.1409 15.3238 48.2573 13.7932C47.3737 12.2627 47.8981 10.3055 49.4287 9.42189C50.9587 8.53829 52.9159 9.06269 53.8 10.5932Z" fill="#0B29C6"/>
<path fill-rule="evenodd" clip-rule="evenodd" d="M35.6641 27.0375C36.6107 16.5782 42.2546 6.21916 49.2931 3.35156C46.8308 6.3546 43.6194 10.7661 45.6937 17.4261C50.4704 17.3879 55.8127 18.1554 59.6824 21.346C52.1691 20.1895 44.7595 23.5453 35.6641 27.0375Z" fill="#6981FF"/>
</g>
<defs>
<clipPath id="clip0_9265_19827">
<rect width="64" height="58.0465" fill="white" transform="translate(0.5 0.976562)"/>
</clipPath>
</defs>
</svg>
