<svg width="65" height="54" viewBox="0 0 65 54" fill="none" xmlns="http://www.w3.org/2000/svg">
<g clip-path="url(#clip0_9265_19799)">
<path d="M6.99092 3.72061C18.2897 -4.25963 26.981 6.24901 26.981 6.24901L51.3959 35.7206C51.3959 35.7206 52.9366 38.2885 50.7243 40.2638C48.4724 42.2786 46.9317 40.8564 46.9317 40.8564C46.9317 40.8564 48.3539 43.9379 45.865 45.3996C43.3761 46.8614 41.6378 44.9651 41.6378 44.9651C41.6378 44.9651 43.0601 48.3626 40.6107 49.9428C38.1613 51.5231 35.6724 48.8762 35.6724 48.8762C35.6724 48.8762 36.6601 51.7206 34.3687 52.6688C32.0773 53.6169 30.3786 52.2737 30.3786 52.2737C26.665 49.6663 9.12425 31.9675 9.12425 31.9675C-0.831307 22.1305 -4.18933 11.6614 6.99092 3.72061Z" fill="white"/>
<path d="M21.012 19.5625L38.3948 4.86622C38.3948 4.86622 49.7725 -5.5239 60.7157 6.6835C69.0911 16.086 57.3182 28.965 50.1281 34.5354L37.8417 19.4045C37.8417 19.4045 28.3997 27.1477 23.5404 23.6317C23.0664 23.2761 20.538 19.9971 21.012 19.5625Z" fill="#0B29C6"/>
<path fill-rule="evenodd" clip-rule="evenodd" d="M39.6466 32.3894C39.7846 32.2719 39.9917 32.2885 40.1092 32.4264L47.1413 40.6832C47.2588 40.8212 47.2422 41.0282 47.1042 41.1457C46.9663 41.2632 46.7592 41.2467 46.6417 41.1087L39.6096 32.8519C39.4921 32.7139 39.5087 32.5069 39.6466 32.3894Z" fill="#0B29C6"/>
<path fill-rule="evenodd" clip-rule="evenodd" d="M34.3931 36.7776C34.5294 36.6582 34.7367 36.6719 34.8562 36.8082L41.8487 44.7884C41.9682 44.9247 41.9545 45.132 41.8182 45.2514C41.6819 45.3709 41.4746 45.3572 41.3552 45.2209L34.3626 37.2407C34.2432 37.1044 34.2568 36.8971 34.3931 36.7776Z" fill="#0B29C6"/>
<path fill-rule="evenodd" clip-rule="evenodd" d="M28.6579 40.9658C28.7939 40.846 29.0012 40.859 29.1211 40.9949L35.9161 48.6986C36.036 48.8345 36.023 49.0418 35.8871 49.1617C35.7512 49.2816 35.5439 49.2686 35.424 49.1327L28.6289 41.429C28.5091 41.2931 28.522 41.0857 28.6579 40.9658Z" fill="#0B29C6"/>
<path fill-rule="evenodd" clip-rule="evenodd" d="M38.0796 19.1418C37.9346 19.0331 37.729 19.0625 37.6203 19.2074L38.0796 19.1418ZM37.8828 19.4043C37.686 19.6668 37.6861 19.6669 37.6863 19.667L37.6868 19.6675L37.6887 19.6688L37.6952 19.6737L37.7195 19.6915C37.7407 19.707 37.7716 19.7294 37.8121 19.7581C37.893 19.8155 38.0118 19.8981 38.1654 20.0005C38.4726 20.2051 38.9194 20.4887 39.4814 20.8076C40.6044 21.4448 42.1922 22.2252 44.0483 22.7945C47.7586 23.9327 52.5873 24.2383 56.8923 20.8066C57.034 20.6936 57.0573 20.4872 56.9443 20.3455C56.8314 20.2038 56.6249 20.1805 56.4832 20.2934C52.4129 23.5382 47.8391 23.271 44.2408 22.1672C42.4426 21.6156 40.8995 20.8577 39.8052 20.2368C39.2586 19.9267 38.8251 19.6514 38.5292 19.4543C38.3813 19.3558 38.2678 19.2768 38.1919 19.2229C38.1539 19.196 38.1253 19.1753 38.1065 19.1616L38.0856 19.1462L38.0808 19.1426L38.0796 19.1418M37.8828 19.4043L37.686 19.6668C37.541 19.5581 37.5116 19.3524 37.6203 19.2074" fill="#3051FF"/>
</g>
<defs>
<clipPath id="clip0_9265_19799">
<rect width="64" height="52.5432" fill="white" transform="translate(0.5 0.728516)"/>
</clipPath>
</defs>
</svg>
