<svg width="67" height="64" viewBox="0 0 67 64" fill="none" xmlns="http://www.w3.org/2000/svg">
<g clip-path="url(#clip0_9265_19786)">
<path fill-rule="evenodd" clip-rule="evenodd" d="M11.1898 12.6295C15.9141 15.4265 23.3506 26.9788 27.3796 29.4139C32.8348 32.7108 36.5649 29.9035 41.2724 26.2512C48.0611 20.9836 54.3249 18.3216 56.9809 17.7711C61.6343 16.8061 65.2097 20.4974 65.659 24.3036C66.3556 30.2088 64.5385 35.4117 61.742 40.7248C59.4665 45.0485 43.777 62.4739 32.3573 63.6567C27.3074 64.1797 24.1805 61.7596 19.2274 57.6023C12.8836 52.278 9.65508 48.6815 5.36708 41.3075C2.654 36.6413 0.410972 29.7942 -0.104055 24.3717C-0.540812 19.7711 1.22697 6.73117 11.1898 12.6295Z" fill="#0B29C6"/>
<mask id="mask0_9265_19786" style="mask-type:luminance" maskUnits="userSpaceOnUse" x="-1" y="11" width="67" height="53">
<path d="M11.1898 12.6295C15.9141 15.4265 23.3506 26.9788 27.3796 29.4139C32.8348 32.7108 36.5649 29.9035 41.2724 26.2512C48.0611 20.9836 54.3249 18.3216 56.9809 17.7711C61.6343 16.8061 65.2097 20.4974 65.659 24.3036C66.3556 30.2088 64.5385 35.4117 61.742 40.7248C59.4665 45.0485 43.777 62.4739 32.3573 63.6567C27.3074 64.1797 24.1805 61.7596 19.2274 57.6023C12.8836 52.278 9.65508 48.6815 5.36708 41.3075C2.654 36.6413 0.410972 29.7942 -0.104055 24.3717C-0.540812 19.7711 1.22697 6.73117 11.1898 12.6295Z" fill="white"/>
</mask>
<g mask="url(#mask0_9265_19786)">
<path fill-rule="evenodd" clip-rule="evenodd" d="M21.8316 64.4836C22.8033 60.6856 23.6435 42.9352 20.2507 36.588C17.7201 31.8545 14.9893 26.9856 13.3352 21.8302C12.7791 20.0964 11.938 17.711 12.847 15.9353C13.9912 13.7004 15.7067 16.1565 16.7903 17.4525C20.4695 21.8521 23.8217 28.4809 29.794 30.1452C35.1968 31.6513 38.1932 27.9703 43.5571 25.0263C45.1437 24.1551 49.8563 21.0203 51.7599 23.0302C53.7914 25.1742 47.1 29.4203 44.9274 32.9645C43.4749 35.3345 42.2325 38.0778 41.6825 40.1293C39.2595 49.1637 43.6401 57.2211 44.8851 66.0467" fill="white"/>
</g>
<path fill-rule="evenodd" clip-rule="evenodd" d="M21.7852 0.276367C25.086 0.276367 27.7653 2.93314 27.7653 6.20513C27.7653 9.47799 25.0856 12.1343 21.7852 12.1343C18.484 12.1343 15.8047 9.47756 15.8047 6.20513C15.8043 2.93314 18.484 0.276367 21.7852 0.276367Z" fill="#0B29C6"/>
<path d="M48.7618 16.9595C52.0648 16.9595 54.7423 14.3049 54.7423 11.0303C54.7423 7.75566 52.0648 5.10107 48.7618 5.10107C45.4588 5.10107 42.7812 7.75566 42.7812 11.0303C42.7812 14.3049 45.4588 16.9595 48.7618 16.9595Z" fill="#0B29C6"/>
<path d="M34.1391 24.6607C36.8997 24.6607 39.1376 22.442 39.1376 19.7051C39.1376 16.9682 36.8997 14.7495 34.1391 14.7495C31.3785 14.7495 29.1406 16.9682 29.1406 19.7051C29.1406 22.442 31.3785 24.6607 34.1391 24.6607Z" fill="white"/>
</g>
<defs>
<clipPath id="clip0_9265_19786">
<rect width="66.1622" height="64" fill="white" transform="translate(0.335938)"/>
</clipPath>
</defs>
</svg>
