<svg width="73" height="64" viewBox="0 0 73 64" fill="none" xmlns="http://www.w3.org/2000/svg">
<g clip-path="url(#clip0_9265_19767)">
<path d="M36.9179 63.2717C43.7481 62.8694 48.959 57.0062 48.5567 50.176C48.1544 43.3458 42.2913 38.1349 35.461 38.5372C28.6308 38.9395 23.4199 44.8026 23.8222 51.6329C24.2245 58.4631 30.0876 63.674 36.9179 63.2717Z" fill="white"/>
<path d="M33.0124 48.4269C33.0105 49.0084 32.5366 49.4778 31.9551 49.4758C31.3736 49.4739 30.9043 49.0007 30.9063 48.4185C30.9082 47.837 31.3821 47.3677 31.9636 47.3696C32.5451 47.3722 33.015 47.8455 33.0124 48.4269Z" fill="#183DFF"/>
<path d="M41.7625 48.4606C41.7599 49.0421 41.2867 49.5115 40.7052 49.5095C40.1237 49.5076 39.6543 49.0337 39.6563 48.4522C39.6588 47.8707 40.1321 47.4014 40.7136 47.4033C41.2951 47.4059 41.7644 47.8791 41.7625 48.4606Z" fill="#183DFF"/>
<path d="M30.026 18.9633C34.6741 23.9841 34.3726 31.8223 29.3518 36.4703C24.331 41.1184 16.4929 40.8163 11.8448 35.7961C7.19678 30.7753 7.49821 22.9372 12.519 18.2892C17.5398 13.6411 25.378 13.9426 30.026 18.9633Z" fill="#0B29C6"/>
<path d="M16.9351 27.7379C17.3299 28.1645 17.3046 28.8309 16.8774 29.2257C16.4508 29.6205 15.7844 29.5952 15.3896 29.1687C14.9949 28.7421 15.0201 28.0757 15.4467 27.6809C15.8739 27.2855 16.5396 27.3114 16.9351 27.7379Z" fill="white"/>
<path d="M23.3569 21.7914C23.7517 22.218 23.7265 22.8844 23.2993 23.2792C22.8727 23.674 22.2063 23.6487 21.8115 23.2221C21.4167 22.7956 21.442 22.1291 21.8686 21.7344C22.2958 21.3396 22.9621 21.3648 23.3569 21.7914Z" fill="white"/>
<path fill-rule="evenodd" clip-rule="evenodd" d="M26.402 26.0479C26.7952 25.9372 27.2037 26.1662 27.3144 26.5593C27.8873 28.594 27.3015 30.7856 25.784 32.2472L25.784 32.2472C24.209 33.764 21.8912 34.2446 19.8293 33.4897C19.4457 33.3492 19.2486 32.9244 19.389 32.5409C19.5295 32.1573 19.9543 31.9602 20.3378 32.1006C21.8737 32.663 23.5945 32.3021 24.7579 31.1818C25.8788 30.1022 26.3172 28.4756 25.8905 26.9603C25.7798 26.5671 26.0088 26.1586 26.402 26.0479Z" fill="white"/>
<path d="M42.5743 19.0119C37.8873 23.9964 38.1285 31.8365 43.113 36.5234C48.0975 41.2103 55.9375 40.9692 60.6245 35.9847C65.3114 31.0002 65.0703 23.1601 60.0858 18.4732C55.1013 13.7863 47.2612 14.0274 42.5743 19.0119Z" fill="#6981FF"/>
<path d="M55.5907 27.8879C55.192 28.3119 55.2128 28.9776 55.6367 29.3763C56.06 29.775 56.7264 29.7543 57.1251 29.3303C57.5231 28.907 57.503 28.2406 57.0791 27.8419C56.6551 27.4439 55.9887 27.4639 55.5907 27.8879Z" fill="white"/>
<path d="M49.2157 21.8918C48.8171 22.3151 48.8378 22.9815 49.2611 23.3802C49.6851 23.7789 50.3515 23.7582 50.7495 23.3342C51.1475 22.9109 51.1275 22.2445 50.7035 21.8458C50.2808 21.4478 49.6144 21.4679 49.2157 21.8918Z" fill="white"/>
<path d="M36.2399 5.89682C35.8107 4.61391 35.298 3.33748 34.4818 2.25877C33.6656 1.18006 32.5104 0.305555 31.1789 0.0644017C28.945 -0.340114 26.6488 1.21118 25.7795 3.30896C24.9102 5.40609 25.2875 7.86754 26.3351 9.88169C27.3827 11.8958 29.0358 13.5275 30.7673 14.9958C32.4988 16.4642 34.3418 17.8112 35.9229 19.4403C38.9892 17.5487 41.9193 14.7638 44.3561 12.1098C45.7415 10.6013 47.0432 8.91384 47.5203 6.92173C47.9974 4.92961 47.4548 2.57188 45.7596 1.42186C44.1409 0.323708 41.8914 0.593388 40.1956 1.56902C38.4997 2.54466 37.4638 4.37081 36.2399 5.89682Z" fill="white"/>
<path d="M62.2072 53.4934C63.4182 54.097 64.6829 54.637 66.0229 54.8224C67.3628 55.0084 68.7981 54.8094 69.9105 54.0386C71.7762 52.7453 72.3026 50.0246 71.4346 47.9268C70.5659 45.829 68.5595 44.3555 66.3943 43.6722C64.2291 42.989 61.9071 43.0039 59.644 43.1899C57.3815 43.376 55.1256 43.7267 52.8554 43.6923C52.0243 47.1982 51.9219 51.2394 52.0755 54.8386C52.163 56.8851 52.4353 58.9985 53.5062 60.7442C54.5772 62.49 56.6283 63.7736 58.6398 63.3885C60.5613 63.0203 61.9609 61.2389 62.4704 59.3498C62.9793 57.4614 62.4205 55.4376 62.2072 53.4934Z" fill="#0B29C6"/>
<path d="M9.8104 53.2902C8.5949 53.8846 7.32627 54.4143 5.98437 54.5899C4.64246 54.7656 3.20915 54.5556 2.10322 53.7764C0.247243 52.4688 -0.257763 49.7435 0.626467 47.6529C1.51135 45.5622 3.52942 44.1043 5.6998 43.4379C7.87018 42.7715 10.1922 42.8045 12.4534 43.0081C14.7145 43.2116 16.9679 43.5799 19.2381 43.563C20.0419 47.0753 20.1126 51.1166 19.9317 54.7151C19.8287 56.761 19.5395 58.8724 18.455 60.6097C17.3704 62.347 15.3096 63.6151 13.3007 63.2138C11.3818 62.8307 9.99648 61.0382 9.50185 59.1459C9.00723 57.2524 9.58156 55.233 9.8104 53.2902Z" fill="white"/>
<path fill-rule="evenodd" clip-rule="evenodd" d="M53.2143 32.9889C53.325 33.3821 53.096 33.7906 52.7029 33.9013C50.6683 34.4742 48.4766 33.8884 47.015 32.3709L47.015 32.3709C45.4982 30.796 45.0176 28.4781 45.7726 26.4162C45.913 26.0326 46.3378 25.8355 46.7213 25.976C47.1049 26.1164 47.302 26.5412 47.1616 26.9247C46.5993 28.4607 46.9601 30.1815 48.0804 31.3448C49.16 32.4657 50.7867 32.9041 52.3019 32.4775C52.6951 32.3667 53.1036 32.5957 53.2143 32.9889Z" fill="white"/>
<path fill-rule="evenodd" clip-rule="evenodd" d="M41.0103 53.6303C41.3666 53.83 41.4935 54.2808 41.2938 54.6371C40.2602 56.4809 38.2963 57.6164 36.1897 57.5768L36.1897 57.5768C34.0035 57.5357 32.0248 56.2366 31.1005 54.2448C30.9286 53.8742 31.0896 53.4345 31.4602 53.2626C31.8307 53.0907 32.2704 53.2517 32.4424 53.6222C33.1308 55.1059 34.6027 56.0675 36.2175 56.0979C37.7735 56.1271 39.2337 55.287 40.0035 53.9138C40.2032 53.5575 40.654 53.4305 41.0103 53.6303Z" fill="#183DFF"/>
</g>
<defs>
<clipPath id="clip0_9265_19767">
<rect width="71.9571" height="64" fill="white" transform="translate(0.539062)"/>
</clipPath>
</defs>
</svg>
