<svg width="439" height="439" viewBox="0 0 439 439" fill="none" xmlns="http://www.w3.org/2000/svg">
<path d="M410.557 221.18C406.224 257.881 389.466 300.553 355.997 320.157C305.429 349.782 309.662 395.347 210.958 415.155C195.569 418.245 180.965 419.545 167.193 419.289C159.79 419.152 152.625 418.555 145.713 417.537C82.9816 408.374 40.7656 364.769 25.2777 312.133C4.89493 242.907 45.5929 197.587 72.5685 170.28C99.5442 142.974 119.301 57.8927 216.18 37.6565C230.952 34.5774 246.058 33.0066 261.159 33.3833C295.629 34.2288 333.226 45.548 359.241 69.1714C361.194 70.9468 363.093 72.7871 364.945 74.6835C401.104 111.797 416.469 171.144 410.557 221.18Z" fill="#E67E22"/>
<path opacity="0.7" d="M410.557 221.18C406.224 257.881 389.466 300.553 355.997 320.157C305.429 349.782 309.662 395.347 210.958 415.155C195.569 418.245 180.965 419.545 167.193 419.289C159.79 419.152 152.625 418.555 145.713 417.537C82.9816 408.374 40.7656 364.769 25.2777 312.133C4.89493 242.907 45.5929 197.587 72.5685 170.28C99.5442 142.974 119.301 57.8927 216.18 37.6565C230.952 34.5774 246.058 33.0066 261.159 33.3833C295.629 34.2288 333.226 45.548 359.241 69.1714C361.194 70.9468 363.093 72.7871 364.945 74.6835C401.104 111.797 416.469 171.144 410.557 221.18Z" fill="white"/>
<path d="M22.333 407.482H418.646" stroke="#18313E" stroke-miterlimit="10" stroke-linecap="round" stroke-linejoin="round"/>
<path d="M331.399 64.4487H380.756C380.756 64.4487 385.492 50.2409 376.968 45.0308C368.443 39.8208 368.443 46.9256 361.812 44.0835C356.335 41.7357 355.31 37.2799 353.778 32.558C353.603 32.0198 353.422 31.478 353.227 30.9363C352.686 29.4297 351.995 28.0284 351.18 26.736" stroke="#B2B2B2" stroke-miterlimit="10" stroke-linecap="round" stroke-linejoin="round"/>
<path d="M345.385 20.5759C333.018 11.5624 312.559 14.9128 312.558 34.1375C312.558 38.8734 301.192 34.1375 296.93 40.294C292.667 46.4506 297.403 50.24 291.72 52.1339C286.036 54.0286 285.563 49.2926 278.459 49.7659C271.355 50.2391 272.303 56.8698 269.935 58.7645C267.567 60.6592 267.567 59.7119 262.358 60.1851C257.148 60.6584 256.201 64.4478 256.201 64.4478H322.654" stroke="#B2B2B2" stroke-miterlimit="10" stroke-linecap="round" stroke-linejoin="round"/>
<path d="M358.084 59.2667C358.084 59.2667 360.665 51.2919 354.331 45.4277C347.998 39.5635 341.43 42.8473 339.553 45.4277C337.677 48.0081 337.677 52.9337 334.627 53.4026C331.578 53.8714 332.281 48.2426 325.714 49.65C319.147 51.0574 321.726 57.6249 318.677 59.0323C315.628 60.4397 315.628 55.2797 311.405 56.9216C307.183 58.5635 307.417 61.6127 307.417 61.6127" stroke="#B2B2B2" stroke-miterlimit="10" stroke-linecap="round" stroke-linejoin="round"/>
<path d="M324.395 43.3319C324.395 43.3319 319.172 39.1535 312.382 42.287C305.592 45.4206 308.726 51.9494 305.592 53.5167C302.458 55.0839 300.891 53.255 296.973 55.0839C293.055 56.9119 293.317 59.5239 293.317 59.5239" stroke="#B2B2B2" stroke-miterlimit="10" stroke-linecap="round" stroke-linejoin="round"/>
<path d="M45.6041 89.0503C44.9921 88.7368 44.2748 88.4225 43.0517 88.5033C40.2886 88.6877 40.6574 91.2663 39.7364 92.003C38.8154 92.7396 38.8154 92.3717 36.7898 92.5553C34.7634 92.7396 34.3955 94.2129 34.3955 94.2129H82.8365C82.8365 94.2129 84.0297 90.6333 82.7672 88.1802" stroke="#B2B2B2" stroke-miterlimit="10" stroke-linecap="round" stroke-linejoin="round"/>
<path d="M81.3631 86.6621C78.0478 84.6356 78.0478 87.3987 75.4691 86.2933C73.3391 85.3802 72.9405 83.6479 72.3443 81.8111C72.2767 81.6013 72.2065 81.3906 72.1301 81.1798C69.3319 73.3981 56.3138 72.8617 56.3138 82.4248C56.3138 84.2669 51.8931 82.4248 50.2354 84.8191C48.5777 87.2135 50.4198 88.6876 48.209 89.4243" stroke="#B2B2B2" stroke-miterlimit="10" stroke-linecap="round" stroke-linejoin="round"/>
<path d="M74.0194 92.1978C74.0194 92.1978 75.023 89.0958 72.5602 86.8157C70.0974 84.5346 67.5424 85.8121 66.8128 86.8157C66.0832 87.8192 66.0832 89.735 64.897 89.9177C63.7108 90.1003 63.9848 87.9105 61.4307 88.4584C58.8766 89.0054 59.8801 91.5604 58.694 92.1074C57.5078 92.6544 57.5078 90.6482 55.8659 91.2865C54.2241 91.9248 54.3154 93.1109 54.3154 93.1109" stroke="#B2B2B2" stroke-miterlimit="10" stroke-linecap="round" stroke-linejoin="round"/>
<path d="M60.917 86.0009C60.917 86.0009 58.8853 84.3757 56.2452 85.5944C53.6042 86.8131 54.8237 89.3522 53.6042 89.9616C52.3855 90.5709 51.7762 89.8597 50.2528 90.5709C48.7295 91.2821 48.8305 92.2971 48.8305 92.2971" stroke="#B2B2B2" stroke-miterlimit="10" stroke-linecap="round" stroke-linejoin="round"/>
<path d="M192.001 39.9682C191.389 39.6557 190.672 39.3405 189.449 39.4212C186.686 39.6056 187.054 42.1843 186.133 42.921C185.212 43.6576 185.212 43.2897 183.187 43.4732C181.16 43.6576 180.792 45.1309 180.792 45.1309H229.234C229.234 45.1309 230.428 41.5513 229.165 39.0981" stroke="#B2B2B2" stroke-miterlimit="10" stroke-linecap="round" stroke-linejoin="round"/>
<path d="M227.76 37.5801C224.445 35.5537 224.445 38.3168 221.866 37.2114C219.736 36.2983 219.337 34.5651 218.741 32.7292C218.674 32.5202 218.603 32.3095 218.527 32.0988C215.729 24.3171 202.711 23.7806 202.711 33.3438C202.711 35.1858 198.29 33.3438 196.632 35.7381C194.975 38.1324 196.817 39.6066 194.606 40.3432" stroke="#B2B2B2" stroke-miterlimit="10" stroke-linecap="round" stroke-linejoin="round"/>
<path d="M220.416 43.1168C220.416 43.1168 221.42 40.0148 218.957 37.7346C216.494 35.4544 213.939 36.7311 213.21 37.7346C212.48 38.7382 212.48 40.654 211.294 40.8366C210.108 41.0192 210.382 38.8295 207.828 39.3774C205.274 39.9243 206.277 42.4793 205.091 43.0263C203.905 43.5733 203.905 41.5671 202.263 42.2054C200.621 42.8437 200.712 44.0299 200.712 44.0299" stroke="#B2B2B2" stroke-miterlimit="10" stroke-linecap="round" stroke-linejoin="round"/>
<path d="M207.314 36.919C207.314 36.919 205.282 35.2938 202.642 36.5125C200.001 37.7312 201.22 40.2703 200.001 40.8797C198.782 41.489 198.173 40.7778 196.65 41.489C195.126 42.2002 195.227 43.2151 195.227 43.2151" stroke="#B2B2B2" stroke-miterlimit="10" stroke-linecap="round" stroke-linejoin="round"/>
<path d="M259.241 71.1777H207.219V352.323H259.241V71.1777Z" fill="#18313E" stroke="#18313E" stroke-miterlimit="10" stroke-linecap="round" stroke-linejoin="round"/>
<path d="M290.432 71.1777H246.516V352.323H290.432V71.1777Z" fill="white" stroke="#18313E" stroke-miterlimit="10" stroke-linecap="round" stroke-linejoin="round"/>
<path d="M288.38 74.2007H248.16V88.1064H288.38V74.2007Z" fill="white" stroke="#18313E" stroke-miterlimit="10" stroke-linecap="round" stroke-linejoin="round"/>
<path d="M253.604 76.1411V86.2478" stroke="#18313E" stroke-miterlimit="10" stroke-linecap="round" stroke-linejoin="round"/>
<path d="M259.57 76.1411V86.2478" stroke="#18313E" stroke-miterlimit="10" stroke-linecap="round" stroke-linejoin="round"/>
<path d="M265.537 76.1411V86.2478" stroke="#18313E" stroke-miterlimit="10" stroke-linecap="round" stroke-linejoin="round"/>
<path d="M271.504 76.1411V86.2478" stroke="#18313E" stroke-miterlimit="10" stroke-linecap="round" stroke-linejoin="round"/>
<path d="M277.471 76.1411V86.2478" stroke="#18313E" stroke-miterlimit="10" stroke-linecap="round" stroke-linejoin="round"/>
<path d="M283.438 76.1411V86.2478" stroke="#18313E" stroke-miterlimit="10" stroke-linecap="round" stroke-linejoin="round"/>
<path d="M244.03 74.2007H209.55V88.1064H244.03V74.2007Z" fill="white" stroke="#18313E" stroke-miterlimit="10" stroke-linecap="round" stroke-linejoin="round"/>
<path d="M214.217 76.1411V86.2478" stroke="#18313E" stroke-miterlimit="10" stroke-linecap="round" stroke-linejoin="round"/>
<path d="M219.332 76.1411V86.2478" stroke="#18313E" stroke-miterlimit="10" stroke-linecap="round" stroke-linejoin="round"/>
<path d="M224.447 76.1411V86.2478" stroke="#18313E" stroke-miterlimit="10" stroke-linecap="round" stroke-linejoin="round"/>
<path d="M229.562 76.1411V86.2478" stroke="#18313E" stroke-miterlimit="10" stroke-linecap="round" stroke-linejoin="round"/>
<path d="M234.678 76.1411V86.2478" stroke="#18313E" stroke-miterlimit="10" stroke-linecap="round" stroke-linejoin="round"/>
<path d="M239.793 76.1411V86.2478" stroke="#18313E" stroke-miterlimit="10" stroke-linecap="round" stroke-linejoin="round"/>
<path d="M194.638 108.06H99.7144V352.324H194.638V108.06Z" fill="white" stroke="#18313E" stroke-miterlimit="10" stroke-linecap="round" stroke-linejoin="round"/>
<path d="M140.764 117.394H105.524V342.988H140.764V117.394Z" fill="#18313E" stroke="#18313E" stroke-miterlimit="10" stroke-linecap="round" stroke-linejoin="round"/>
<path d="M240.59 108.06H145.666V352.324H240.59V108.06Z" fill="white" stroke="#18313E" stroke-miterlimit="10" stroke-linecap="round" stroke-linejoin="round"/>
<path d="M232.768 117.394H153.487V342.988H232.768V117.394Z" fill="white" stroke="#18313E" stroke-miterlimit="10" stroke-linecap="round" stroke-linejoin="round"/>
<path d="M173.4 126.501H157.153V135.003H173.4V126.501Z" fill="white" stroke="#18313E" stroke-miterlimit="10" stroke-linecap="round" stroke-linejoin="round"/>
<path d="M191.967 126.501H175.72V135.003H191.967V126.501Z" fill="white" stroke="#18313E" stroke-miterlimit="10" stroke-linecap="round" stroke-linejoin="round"/>
<path d="M210.535 126.501H194.288V135.003H210.535V126.501Z" fill="white" stroke="#18313E" stroke-miterlimit="10" stroke-linecap="round" stroke-linejoin="round"/>
<path d="M229.102 126.501H212.855V135.003H229.102V126.501Z" fill="white" stroke="#18313E" stroke-miterlimit="10" stroke-linecap="round" stroke-linejoin="round"/>
<path d="M173.4 141.615H157.153V150.118H173.4V141.615Z" fill="white" stroke="#18313E" stroke-miterlimit="10" stroke-linecap="round" stroke-linejoin="round"/>
<path d="M191.967 141.615H175.72V150.118H191.967V141.615Z" fill="white" stroke="#18313E" stroke-miterlimit="10" stroke-linecap="round" stroke-linejoin="round"/>
<path d="M210.535 141.615H194.288V150.118H210.535V141.615Z" fill="white" stroke="#18313E" stroke-miterlimit="10" stroke-linecap="round" stroke-linejoin="round"/>
<path d="M229.102 141.615H212.855V150.118H229.102V141.615Z" fill="white" stroke="#18313E" stroke-miterlimit="10" stroke-linecap="round" stroke-linejoin="round"/>
<path d="M173.4 156.731H157.153V165.234H173.4V156.731Z" fill="white" stroke="#18313E" stroke-miterlimit="10" stroke-linecap="round" stroke-linejoin="round"/>
<path d="M191.967 156.731H175.72V165.234H191.967V156.731Z" fill="white" stroke="#18313E" stroke-miterlimit="10" stroke-linecap="round" stroke-linejoin="round"/>
<path d="M210.535 156.731H194.288V165.234H210.535V156.731Z" fill="white" stroke="#18313E" stroke-miterlimit="10" stroke-linecap="round" stroke-linejoin="round"/>
<path d="M229.102 156.731H212.855V165.234H229.102V156.731Z" fill="white" stroke="#18313E" stroke-miterlimit="10" stroke-linecap="round" stroke-linejoin="round"/>
<path d="M173.4 171.847H157.153V180.349H173.4V171.847Z" fill="white" stroke="#18313E" stroke-miterlimit="10" stroke-linecap="round" stroke-linejoin="round"/>
<path d="M191.967 171.847H175.72V180.349H191.967V171.847Z" fill="white" stroke="#18313E" stroke-miterlimit="10" stroke-linecap="round" stroke-linejoin="round"/>
<path d="M210.535 171.847H194.288V180.349H210.535V171.847Z" fill="white" stroke="#18313E" stroke-miterlimit="10" stroke-linecap="round" stroke-linejoin="round"/>
<path d="M229.102 171.847H212.855V180.349H229.102V171.847Z" fill="white" stroke="#18313E" stroke-miterlimit="10" stroke-linecap="round" stroke-linejoin="round"/>
<path d="M173.4 186.961H157.153V195.464H173.4V186.961Z" fill="white" stroke="#18313E" stroke-miterlimit="10" stroke-linecap="round" stroke-linejoin="round"/>
<path d="M191.967 186.961H175.72V195.464H191.967V186.961Z" fill="white" stroke="#18313E" stroke-miterlimit="10" stroke-linecap="round" stroke-linejoin="round"/>
<path d="M210.535 186.961H194.288V195.464H210.535V186.961Z" fill="white" stroke="#18313E" stroke-miterlimit="10" stroke-linecap="round" stroke-linejoin="round"/>
<path d="M229.102 186.961H212.855V195.464H229.102V186.961Z" fill="white" stroke="#18313E" stroke-miterlimit="10" stroke-linecap="round" stroke-linejoin="round"/>
<path d="M173.4 202.077H157.153V210.58H173.4V202.077Z" fill="white" stroke="#18313E" stroke-miterlimit="10" stroke-linecap="round" stroke-linejoin="round"/>
<path d="M191.967 202.077H175.72V210.58H191.967V202.077Z" fill="white" stroke="#18313E" stroke-miterlimit="10" stroke-linecap="round" stroke-linejoin="round"/>
<path d="M210.535 202.077H194.288V210.58H210.535V202.077Z" fill="white" stroke="#18313E" stroke-miterlimit="10" stroke-linecap="round" stroke-linejoin="round"/>
<path d="M229.102 202.077H212.855V210.58H229.102V202.077Z" fill="white" stroke="#18313E" stroke-miterlimit="10" stroke-linecap="round" stroke-linejoin="round"/>
<path d="M173.4 217.193H157.153V225.695H173.4V217.193Z" fill="white" stroke="#18313E" stroke-miterlimit="10" stroke-linecap="round" stroke-linejoin="round"/>
<path d="M191.967 217.193H175.72V225.695H191.967V217.193Z" fill="white" stroke="#18313E" stroke-miterlimit="10" stroke-linecap="round" stroke-linejoin="round"/>
<path d="M210.535 217.193H194.288V225.695H210.535V217.193Z" fill="white" stroke="#18313E" stroke-miterlimit="10" stroke-linecap="round" stroke-linejoin="round"/>
<path d="M229.102 217.193H212.855V225.695H229.102V217.193Z" fill="white" stroke="#18313E" stroke-miterlimit="10" stroke-linecap="round" stroke-linejoin="round"/>
<path d="M173.4 232.307H157.153V240.81H173.4V232.307Z" fill="white" stroke="#18313E" stroke-miterlimit="10" stroke-linecap="round" stroke-linejoin="round"/>
<path d="M191.967 232.307H175.72V240.81H191.967V232.307Z" fill="white" stroke="#18313E" stroke-miterlimit="10" stroke-linecap="round" stroke-linejoin="round"/>
<path d="M210.535 232.307H194.288V240.81H210.535V232.307Z" fill="white" stroke="#18313E" stroke-miterlimit="10" stroke-linecap="round" stroke-linejoin="round"/>
<path d="M229.102 232.307H212.855V240.81H229.102V232.307Z" fill="white" stroke="#18313E" stroke-miterlimit="10" stroke-linecap="round" stroke-linejoin="round"/>
<path d="M173.4 247.423H157.153V255.926H173.4V247.423Z" fill="white" stroke="#18313E" stroke-miterlimit="10" stroke-linecap="round" stroke-linejoin="round"/>
<path d="M191.967 247.423H175.72V255.926H191.967V247.423Z" fill="white" stroke="#18313E" stroke-miterlimit="10" stroke-linecap="round" stroke-linejoin="round"/>
<path d="M210.535 247.423H194.288V255.926H210.535V247.423Z" fill="white" stroke="#18313E" stroke-miterlimit="10" stroke-linecap="round" stroke-linejoin="round"/>
<path d="M229.102 247.423H212.855V255.926H229.102V247.423Z" fill="white" stroke="#18313E" stroke-miterlimit="10" stroke-linecap="round" stroke-linejoin="round"/>
<path d="M173.4 262.538H157.153V271.041H173.4V262.538Z" fill="white" stroke="#18313E" stroke-miterlimit="10" stroke-linecap="round" stroke-linejoin="round"/>
<path d="M191.967 262.538H175.72V271.041H191.967V262.538Z" fill="white" stroke="#18313E" stroke-miterlimit="10" stroke-linecap="round" stroke-linejoin="round"/>
<path d="M210.535 262.538H194.288V271.041H210.535V262.538Z" fill="white" stroke="#18313E" stroke-miterlimit="10" stroke-linecap="round" stroke-linejoin="round"/>
<path d="M229.102 262.538H212.855V271.041H229.102V262.538Z" fill="white" stroke="#18313E" stroke-miterlimit="10" stroke-linecap="round" stroke-linejoin="round"/>
<path d="M173.4 277.654H157.153V286.156H173.4V277.654Z" fill="white" stroke="#18313E" stroke-miterlimit="10" stroke-linecap="round" stroke-linejoin="round"/>
<path d="M191.967 277.654H175.72V286.156H191.967V277.654Z" fill="white" stroke="#18313E" stroke-miterlimit="10" stroke-linecap="round" stroke-linejoin="round"/>
<path d="M210.535 277.654H194.288V286.156H210.535V277.654Z" fill="white" stroke="#18313E" stroke-miterlimit="10" stroke-linecap="round" stroke-linejoin="round"/>
<path d="M229.102 277.654H212.855V286.156H229.102V277.654Z" fill="white" stroke="#18313E" stroke-miterlimit="10" stroke-linecap="round" stroke-linejoin="round"/>
<path d="M173.4 292.769H157.153V301.272H173.4V292.769Z" fill="white" stroke="#18313E" stroke-miterlimit="10" stroke-linecap="round" stroke-linejoin="round"/>
<path d="M191.967 292.769H175.72V301.272H191.967V292.769Z" fill="white" stroke="#18313E" stroke-miterlimit="10" stroke-linecap="round" stroke-linejoin="round"/>
<path d="M210.535 292.769H194.288V301.272H210.535V292.769Z" fill="white" stroke="#18313E" stroke-miterlimit="10" stroke-linecap="round" stroke-linejoin="round"/>
<path d="M229.102 292.769H212.855V301.272H229.102V292.769Z" fill="white" stroke="#18313E" stroke-miterlimit="10" stroke-linecap="round" stroke-linejoin="round"/>
<path d="M173.4 307.884H157.153V316.387H173.4V307.884Z" fill="white" stroke="#18313E" stroke-miterlimit="10" stroke-linecap="round" stroke-linejoin="round"/>
<path d="M191.967 307.884H175.72V316.387H191.967V307.884Z" fill="white" stroke="#18313E" stroke-miterlimit="10" stroke-linecap="round" stroke-linejoin="round"/>
<path d="M210.535 307.884H194.288V316.387H210.535V307.884Z" fill="white" stroke="#18313E" stroke-miterlimit="10" stroke-linecap="round" stroke-linejoin="round"/>
<path d="M229.102 307.884H212.855V316.387H229.102V307.884Z" fill="white" stroke="#18313E" stroke-miterlimit="10" stroke-linecap="round" stroke-linejoin="round"/>
<path d="M173.4 323H157.153V331.502H173.4V323Z" fill="white" stroke="#18313E" stroke-miterlimit="10" stroke-linecap="round" stroke-linejoin="round"/>
<path d="M191.967 323H175.72V331.502H191.967V323Z" fill="white" stroke="#18313E" stroke-miterlimit="10" stroke-linecap="round" stroke-linejoin="round"/>
<path d="M210.535 323H194.288V331.502H210.535V323Z" fill="white" stroke="#18313E" stroke-miterlimit="10" stroke-linecap="round" stroke-linejoin="round"/>
<path d="M229.102 323H212.855V331.502H229.102V323Z" fill="white" stroke="#18313E" stroke-miterlimit="10" stroke-linecap="round" stroke-linejoin="round"/>
<path d="M116.731 126.501H111.29V135.003H116.731V126.501Z" fill="white" stroke="#18313E" stroke-miterlimit="10" stroke-linecap="round" stroke-linejoin="round"/>
<path d="M122.95 126.501H117.509V135.003H122.95V126.501Z" fill="white" stroke="#18313E" stroke-miterlimit="10" stroke-linecap="round" stroke-linejoin="round"/>
<path d="M129.168 126.501H123.727V135.003H129.168V126.501Z" fill="white" stroke="#18313E" stroke-miterlimit="10" stroke-linecap="round" stroke-linejoin="round"/>
<path d="M135.387 126.501H129.946V135.003H135.387V126.501Z" fill="white" stroke="#18313E" stroke-miterlimit="10" stroke-linecap="round" stroke-linejoin="round"/>
<path d="M116.731 141.615H111.29V150.118H116.731V141.615Z" fill="white" stroke="#18313E" stroke-miterlimit="10" stroke-linecap="round" stroke-linejoin="round"/>
<path d="M122.95 141.615H117.509V150.118H122.95V141.615Z" fill="white" stroke="#18313E" stroke-miterlimit="10" stroke-linecap="round" stroke-linejoin="round"/>
<path d="M129.168 141.615H123.727V150.118H129.168V141.615Z" fill="white" stroke="#18313E" stroke-miterlimit="10" stroke-linecap="round" stroke-linejoin="round"/>
<path d="M135.387 141.615H129.946V150.118H135.387V141.615Z" fill="white" stroke="#18313E" stroke-miterlimit="10" stroke-linecap="round" stroke-linejoin="round"/>
<path d="M116.731 156.731H111.29V165.234H116.731V156.731Z" fill="white" stroke="#18313E" stroke-miterlimit="10" stroke-linecap="round" stroke-linejoin="round"/>
<path d="M122.95 156.731H117.509V165.234H122.95V156.731Z" fill="white" stroke="#18313E" stroke-miterlimit="10" stroke-linecap="round" stroke-linejoin="round"/>
<path d="M129.168 156.731H123.727V165.234H129.168V156.731Z" fill="white" stroke="#18313E" stroke-miterlimit="10" stroke-linecap="round" stroke-linejoin="round"/>
<path d="M135.387 156.731H129.946V165.234H135.387V156.731Z" fill="white" stroke="#18313E" stroke-miterlimit="10" stroke-linecap="round" stroke-linejoin="round"/>
<path d="M116.731 171.847H111.29V180.349H116.731V171.847Z" fill="white" stroke="#18313E" stroke-miterlimit="10" stroke-linecap="round" stroke-linejoin="round"/>
<path d="M122.95 171.847H117.509V180.349H122.95V171.847Z" fill="white" stroke="#18313E" stroke-miterlimit="10" stroke-linecap="round" stroke-linejoin="round"/>
<path d="M129.168 171.847H123.727V180.349H129.168V171.847Z" fill="white" stroke="#18313E" stroke-miterlimit="10" stroke-linecap="round" stroke-linejoin="round"/>
<path d="M135.387 171.847H129.946V180.349H135.387V171.847Z" fill="white" stroke="#18313E" stroke-miterlimit="10" stroke-linecap="round" stroke-linejoin="round"/>
<path d="M116.731 186.961H111.29V195.464H116.731V186.961Z" fill="white" stroke="#18313E" stroke-miterlimit="10" stroke-linecap="round" stroke-linejoin="round"/>
<path d="M122.95 186.961H117.509V195.464H122.95V186.961Z" fill="white" stroke="#18313E" stroke-miterlimit="10" stroke-linecap="round" stroke-linejoin="round"/>
<path d="M129.168 186.961H123.727V195.464H129.168V186.961Z" fill="white" stroke="#18313E" stroke-miterlimit="10" stroke-linecap="round" stroke-linejoin="round"/>
<path d="M135.387 186.961H129.946V195.464H135.387V186.961Z" fill="white" stroke="#18313E" stroke-miterlimit="10" stroke-linecap="round" stroke-linejoin="round"/>
<path d="M116.731 202.077H111.29V210.58H116.731V202.077Z" fill="white" stroke="#18313E" stroke-miterlimit="10" stroke-linecap="round" stroke-linejoin="round"/>
<path d="M122.95 202.077H117.509V210.58H122.95V202.077Z" fill="white" stroke="#18313E" stroke-miterlimit="10" stroke-linecap="round" stroke-linejoin="round"/>
<path d="M129.168 202.077H123.727V210.58H129.168V202.077Z" fill="white" stroke="#18313E" stroke-miterlimit="10" stroke-linecap="round" stroke-linejoin="round"/>
<path d="M135.387 202.077H129.946V210.58H135.387V202.077Z" fill="white" stroke="#18313E" stroke-miterlimit="10" stroke-linecap="round" stroke-linejoin="round"/>
<path d="M116.731 217.193H111.29V225.695H116.731V217.193Z" fill="white" stroke="#18313E" stroke-miterlimit="10" stroke-linecap="round" stroke-linejoin="round"/>
<path d="M122.95 217.193H117.509V225.695H122.95V217.193Z" fill="white" stroke="#18313E" stroke-miterlimit="10" stroke-linecap="round" stroke-linejoin="round"/>
<path d="M129.168 217.193H123.727V225.695H129.168V217.193Z" fill="white" stroke="#18313E" stroke-miterlimit="10" stroke-linecap="round" stroke-linejoin="round"/>
<path d="M135.387 217.193H129.946V225.695H135.387V217.193Z" fill="white" stroke="#18313E" stroke-miterlimit="10" stroke-linecap="round" stroke-linejoin="round"/>
<path d="M116.731 232.307H111.29V240.81H116.731V232.307Z" fill="white" stroke="#18313E" stroke-miterlimit="10" stroke-linecap="round" stroke-linejoin="round"/>
<path d="M122.95 232.307H117.509V240.81H122.95V232.307Z" fill="white" stroke="#18313E" stroke-miterlimit="10" stroke-linecap="round" stroke-linejoin="round"/>
<path d="M129.168 232.307H123.727V240.81H129.168V232.307Z" fill="white" stroke="#18313E" stroke-miterlimit="10" stroke-linecap="round" stroke-linejoin="round"/>
<path d="M135.387 232.307H129.946V240.81H135.387V232.307Z" fill="white" stroke="#18313E" stroke-miterlimit="10" stroke-linecap="round" stroke-linejoin="round"/>
<path d="M116.731 247.423H111.29V255.926H116.731V247.423Z" fill="white" stroke="#18313E" stroke-miterlimit="10" stroke-linecap="round" stroke-linejoin="round"/>
<path d="M122.95 247.423H117.509V255.926H122.95V247.423Z" fill="white" stroke="#18313E" stroke-miterlimit="10" stroke-linecap="round" stroke-linejoin="round"/>
<path d="M129.168 247.423H123.727V255.926H129.168V247.423Z" fill="white" stroke="#18313E" stroke-miterlimit="10" stroke-linecap="round" stroke-linejoin="round"/>
<path d="M135.387 247.423H129.946V255.926H135.387V247.423Z" fill="white" stroke="#18313E" stroke-miterlimit="10" stroke-linecap="round" stroke-linejoin="round"/>
<path d="M116.731 262.538H111.29V271.041H116.731V262.538Z" fill="white" stroke="#18313E" stroke-miterlimit="10" stroke-linecap="round" stroke-linejoin="round"/>
<path d="M122.95 262.538H117.509V271.041H122.95V262.538Z" fill="white" stroke="#18313E" stroke-miterlimit="10" stroke-linecap="round" stroke-linejoin="round"/>
<path d="M129.168 262.538H123.727V271.041H129.168V262.538Z" fill="white" stroke="#18313E" stroke-miterlimit="10" stroke-linecap="round" stroke-linejoin="round"/>
<path d="M135.387 262.538H129.946V271.041H135.387V262.538Z" fill="white" stroke="#18313E" stroke-miterlimit="10" stroke-linecap="round" stroke-linejoin="round"/>
<path d="M116.731 277.654H111.29V286.156H116.731V277.654Z" fill="white" stroke="#18313E" stroke-miterlimit="10" stroke-linecap="round" stroke-linejoin="round"/>
<path d="M122.95 277.654H117.509V286.156H122.95V277.654Z" fill="white" stroke="#18313E" stroke-miterlimit="10" stroke-linecap="round" stroke-linejoin="round"/>
<path d="M129.168 277.654H123.727V286.156H129.168V277.654Z" fill="white" stroke="#18313E" stroke-miterlimit="10" stroke-linecap="round" stroke-linejoin="round"/>
<path d="M135.387 277.654H129.946V286.156H135.387V277.654Z" fill="white" stroke="#18313E" stroke-miterlimit="10" stroke-linecap="round" stroke-linejoin="round"/>
<path d="M116.731 292.769H111.29V301.272H116.731V292.769Z" fill="white" stroke="#18313E" stroke-miterlimit="10" stroke-linecap="round" stroke-linejoin="round"/>
<path d="M122.95 292.769H117.509V301.272H122.95V292.769Z" fill="white" stroke="#18313E" stroke-miterlimit="10" stroke-linecap="round" stroke-linejoin="round"/>
<path d="M129.168 292.769H123.727V301.272H129.168V292.769Z" fill="white" stroke="#18313E" stroke-miterlimit="10" stroke-linecap="round" stroke-linejoin="round"/>
<path d="M135.387 292.769H129.946V301.272H135.387V292.769Z" fill="white" stroke="#18313E" stroke-miterlimit="10" stroke-linecap="round" stroke-linejoin="round"/>
<path d="M116.731 307.884H111.29V316.387H116.731V307.884Z" fill="white" stroke="#18313E" stroke-miterlimit="10" stroke-linecap="round" stroke-linejoin="round"/>
<path d="M122.95 307.884H117.509V316.387H122.95V307.884Z" fill="white" stroke="#18313E" stroke-miterlimit="10" stroke-linecap="round" stroke-linejoin="round"/>
<path d="M129.168 307.884H123.727V316.387H129.168V307.884Z" fill="white" stroke="#18313E" stroke-miterlimit="10" stroke-linecap="round" stroke-linejoin="round"/>
<path d="M135.387 307.884H129.946V316.387H135.387V307.884Z" fill="white" stroke="#18313E" stroke-miterlimit="10" stroke-linecap="round" stroke-linejoin="round"/>
<path d="M116.731 323H111.29V331.502H116.731V323Z" fill="white" stroke="#18313E" stroke-miterlimit="10" stroke-linecap="round" stroke-linejoin="round"/>
<path d="M122.95 323H117.509V331.502H122.95V323Z" fill="white" stroke="#18313E" stroke-miterlimit="10" stroke-linecap="round" stroke-linejoin="round"/>
<path d="M129.168 323H123.727V331.502H129.168V323Z" fill="white" stroke="#18313E" stroke-miterlimit="10" stroke-linecap="round" stroke-linejoin="round"/>
<path d="M135.387 323H129.946V331.502H135.387V323Z" fill="white" stroke="#18313E" stroke-miterlimit="10" stroke-linecap="round" stroke-linejoin="round"/>
<path d="M297.596 375.044H64.1685V407.907H297.596V375.044Z" fill="#18313E" stroke="#18313E" stroke-miterlimit="10" stroke-linecap="round" stroke-linejoin="round"/>
<path d="M177.437 385.901H171.376V407.907H177.437V385.901Z" fill="white" stroke="#18313E" stroke-miterlimit="10" stroke-linecap="round" stroke-linejoin="round"/>
<path d="M149.579 385.901H143.519V407.907H149.579V385.901Z" fill="white" stroke="#18313E" stroke-miterlimit="10" stroke-linecap="round" stroke-linejoin="round"/>
<path d="M121.721 385.901H115.661V407.907H121.721V385.901Z" fill="white" stroke="#18313E" stroke-miterlimit="10" stroke-linecap="round" stroke-linejoin="round"/>
<path d="M93.8641 385.901H87.8032V407.907H93.8641V385.901Z" fill="white" stroke="#18313E" stroke-miterlimit="10" stroke-linecap="round" stroke-linejoin="round"/>
<path d="M66.0061 385.901H59.9453V407.907H66.0061V385.901Z" fill="white" stroke="#18313E" stroke-miterlimit="10" stroke-linecap="round" stroke-linejoin="round"/>
<path d="M218.487 385.901H212.426V407.907H218.487V385.901Z" fill="white" stroke="#18313E" stroke-miterlimit="10" stroke-linecap="round" stroke-linejoin="round"/>
<path d="M259.537 385.901H253.477V407.907H259.537V385.901Z" fill="white" stroke="#18313E" stroke-miterlimit="10" stroke-linecap="round" stroke-linejoin="round"/>
<path d="M300.589 385.901H294.528V407.907H300.589V385.901Z" fill="white" stroke="#18313E" stroke-miterlimit="10" stroke-linecap="round" stroke-linejoin="round"/>
<path d="M302.122 327.783H142.6V388.721H302.122V327.783Z" fill="white" stroke="#18313E" stroke-miterlimit="10" stroke-linecap="round" stroke-linejoin="round"/>
<path d="M168.346 327.783H51.7554V388.721H168.346V327.783Z" fill="white" stroke="#18313E" stroke-miterlimit="10" stroke-linecap="round" stroke-linejoin="round"/>
<path d="M163.282 338.454H56.8179V374.116H163.282V338.454Z" fill="#18313E" stroke="#18313E" stroke-miterlimit="10" stroke-linecap="round" stroke-linejoin="round"/>
<path d="M194.638 338.504H172.504V352.324H194.638V338.504Z" fill="white" stroke="#18313E" stroke-miterlimit="10" stroke-linecap="round" stroke-linejoin="round"/>
<path d="M220.594 338.504H198.459V352.324H220.594V338.504Z" fill="white" stroke="#18313E" stroke-miterlimit="10" stroke-linecap="round" stroke-linejoin="round"/>
<path d="M246.549 338.504H224.415V352.324H246.549V338.504Z" fill="white" stroke="#18313E" stroke-miterlimit="10" stroke-linecap="round" stroke-linejoin="round"/>
<path d="M272.504 338.504H250.37V352.324H272.504V338.504Z" fill="white" stroke="#18313E" stroke-miterlimit="10" stroke-linecap="round" stroke-linejoin="round"/>
<path d="M298.46 338.504H276.326V352.324H298.46V338.504Z" fill="white" stroke="#18313E" stroke-miterlimit="10" stroke-linecap="round" stroke-linejoin="round"/>
<path d="M194.638 360.371H172.504V374.19H194.638V360.371Z" fill="white" stroke="#18313E" stroke-miterlimit="10" stroke-linecap="round" stroke-linejoin="round"/>
<path d="M220.594 360.371H198.459V374.19H220.594V360.371Z" fill="white" stroke="#18313E" stroke-miterlimit="10" stroke-linecap="round" stroke-linejoin="round"/>
<path d="M246.549 360.371H224.415V374.19H246.549V360.371Z" fill="white" stroke="#18313E" stroke-miterlimit="10" stroke-linecap="round" stroke-linejoin="round"/>
<path d="M272.504 360.371H250.37V374.19H272.504V360.371Z" fill="white" stroke="#18313E" stroke-miterlimit="10" stroke-linecap="round" stroke-linejoin="round"/>
<path d="M298.46 360.371H276.326V374.19H298.46V360.371Z" fill="white" stroke="#18313E" stroke-miterlimit="10" stroke-linecap="round" stroke-linejoin="round"/>
<path d="M75.8099 338.504H57.9619V352.324H75.8099V338.504Z" fill="white" stroke="#18313E" stroke-miterlimit="10" stroke-linecap="round" stroke-linejoin="round"/>
<path d="M96.7386 338.504H78.8906V352.324H96.7386V338.504Z" fill="white" stroke="#18313E" stroke-miterlimit="10" stroke-linecap="round" stroke-linejoin="round"/>
<path d="M117.668 338.504H99.8198V352.324H117.668V338.504Z" fill="white" stroke="#18313E" stroke-miterlimit="10" stroke-linecap="round" stroke-linejoin="round"/>
<path d="M138.597 338.504H120.75V352.324H138.597V338.504Z" fill="white" stroke="#18313E" stroke-miterlimit="10" stroke-linecap="round" stroke-linejoin="round"/>
<path d="M159.526 338.504H141.678V352.324H159.526V338.504Z" fill="white" stroke="#18313E" stroke-miterlimit="10" stroke-linecap="round" stroke-linejoin="round"/>
<path d="M75.8099 360.371H57.9619V374.19H75.8099V360.371Z" fill="white" stroke="#18313E" stroke-miterlimit="10" stroke-linecap="round" stroke-linejoin="round"/>
<path d="M96.7386 360.371H78.8906V374.19H96.7386V360.371Z" fill="white" stroke="#18313E" stroke-miterlimit="10" stroke-linecap="round" stroke-linejoin="round"/>
<path d="M117.668 360.371H99.8198V374.19H117.668V360.371Z" fill="white" stroke="#18313E" stroke-miterlimit="10" stroke-linecap="round" stroke-linejoin="round"/>
<path d="M138.597 360.371H120.75V374.19H138.597V360.371Z" fill="white" stroke="#18313E" stroke-miterlimit="10" stroke-linecap="round" stroke-linejoin="round"/>
<path d="M159.526 360.371H141.678V374.19H159.526V360.371Z" fill="white" stroke="#18313E" stroke-miterlimit="10" stroke-linecap="round" stroke-linejoin="round"/>
<path d="M192 318.393H98.1982V328.359H192V318.393Z" fill="#18313E" stroke="#18313E" stroke-miterlimit="10" stroke-linecap="round" stroke-linejoin="round"/>
<path d="M254.144 318.393H160.342V328.359H254.144V318.393Z" fill="white" stroke="#18313E" stroke-miterlimit="10" stroke-linecap="round" stroke-linejoin="round"/>
<path d="M401.694 61.2923L351.869 111.117C347.331 115.655 339.974 115.655 335.436 111.117C330.899 106.58 330.899 99.2219 335.436 94.6844L385.261 44.8597C389.799 40.3222 397.156 40.3222 401.694 44.8597C406.231 49.3972 406.231 56.7548 401.694 61.2923Z" fill="#18313E" stroke="#18313E" stroke-miterlimit="10" stroke-linecap="round" stroke-linejoin="round"/>
<path d="M343.4 112.739L315.685 140.454C313.037 143.101 308.746 143.101 306.099 140.454C303.451 137.807 303.451 133.515 306.099 130.868L333.814 103.153C336.461 100.506 340.752 100.506 343.4 103.153C346.047 105.8 346.047 110.092 343.4 112.739Z" fill="white" stroke="#18313E" stroke-miterlimit="10" stroke-linecap="round" stroke-linejoin="round"/>
<path d="M234.513 135.661C213.422 156.752 213.422 190.947 234.513 212.04C255.604 233.131 289.8 233.131 310.892 212.04C331.983 190.948 331.983 156.752 310.892 135.661C289.8 114.569 255.604 114.569 234.513 135.661ZM304.175 205.322C286.793 222.704 258.612 222.704 241.23 205.322C223.849 187.94 223.849 159.759 241.23 142.377C258.612 124.996 286.793 124.996 304.175 142.377C321.557 159.759 321.557 187.94 304.175 205.322Z" fill="#18313E" stroke="#18313E" stroke-miterlimit="10" stroke-linecap="round" stroke-linejoin="round"/>
<path opacity="0.56" d="M275.16 215.901C299.741 215.901 319.668 195.974 319.668 171.393C319.668 146.811 299.741 126.884 275.16 126.884C250.579 126.884 230.651 146.811 230.651 171.393C230.651 195.974 250.579 215.901 275.16 215.901Z" fill="white"/>
<path d="M236.97 133.203C215.879 154.294 215.879 188.49 236.97 209.582C258.062 230.673 292.258 230.673 313.349 209.582C334.441 188.491 334.441 154.294 313.349 133.203C292.258 112.112 258.062 112.112 236.97 133.203ZM306.633 202.865C289.251 220.246 261.07 220.246 243.688 202.865C226.306 185.483 226.306 157.302 243.688 139.92C261.07 122.538 289.251 122.538 306.633 139.92C324.014 157.302 324.014 185.483 306.633 202.865Z" fill="white" stroke="#18313E" stroke-miterlimit="10" stroke-linecap="round" stroke-linejoin="round"/>
<path d="M133.815 112.573V82.6294" stroke="#18313E" stroke-miterlimit="10" stroke-linecap="round" stroke-linejoin="round"/>
<path d="M131.324 71.7185V76.8004L129.291 80.3572C129.291 82.7225 131.209 84.64 133.574 84.64C135.939 84.64 137.857 82.7225 137.857 80.3572V76.8004" stroke="#18313E" stroke-width="3" stroke-miterlimit="10" stroke-linecap="round" stroke-linejoin="round"/>
<path d="M126.912 71.4734H135.478V61.9559H126.912V71.4734Z" fill="white" stroke="#18313E" stroke-miterlimit="10" stroke-linecap="round" stroke-linejoin="round"/>
<path d="M123.739 68.3013H138.65V49.1863H123.739V68.3013Z" fill="white" stroke="#18313E" stroke-miterlimit="10" stroke-linecap="round" stroke-linejoin="round"/>
<path d="M119.297 64.6528H142.933V58.7834H119.297V64.6528Z" fill="white" stroke="#18313E" stroke-miterlimit="10" stroke-linecap="round" stroke-linejoin="round"/>
<path d="M131.192 58.783H134.576L139.362 64.2099L138.86 64.6524H136.368L131.192 58.783Z" fill="#18313E"/>
<path d="M141.081 58.783L142.933 60.884V64.6524H142.872L137.696 58.783H141.081Z" fill="#18313E"/>
<path d="M124.688 58.783H128.072L132.858 64.2099L132.356 64.6524H129.865L124.688 58.783Z" fill="#18313E"/>
<path d="M119.297 60.0446V58.783H121.569L126.355 64.2099L125.853 64.6524H123.361L119.297 60.0446Z" fill="#18313E"/>
<path d="M131.533 48.8537V37.3536" stroke="#18313E" stroke-width="2" stroke-miterlimit="10" stroke-linecap="round" stroke-linejoin="round"/>
<path d="M13.5352 37.0586H137.503V30.1707L106.241 16.9243H13.5352" stroke="#18313E" stroke-width="2" stroke-miterlimit="10" stroke-linecap="round" stroke-linejoin="round"/>
<path d="M106.241 37.0586V16.9243L85.5762 37.0586V16.9243L106.241 37.0586Z" stroke="#18313E" stroke-width="2" stroke-miterlimit="10" stroke-linecap="round" stroke-linejoin="round"/>
<path d="M75.1602 27.0995L64.9385 37.0586V16.9243L85.6031 37.0586V16.9243L75.1602 27.0995Z" stroke="#18313E" stroke-width="2" stroke-miterlimit="10" stroke-linecap="round" stroke-linejoin="round"/>
<path d="M64.9659 37.0586V16.9243L44.3013 37.0586V16.9243L64.9659 37.0586Z" stroke="#18313E" stroke-width="2" stroke-miterlimit="10" stroke-linecap="round" stroke-linejoin="round"/>
<path d="M34.5069 27.4893L44.3282 37.0586V16.9243L23.6636 37.0586V16.9243L34.5069 27.4893Z" stroke="#18313E" stroke-width="2" stroke-miterlimit="10" stroke-linecap="round" stroke-linejoin="round"/>
<path d="M133.28 97.9646L57.6055 155.086" stroke="#18313E" stroke-miterlimit="10" stroke-linecap="round" stroke-linejoin="round"/>
<path d="M133.28 97.9646L208.955 155.086" stroke="#18313E" stroke-miterlimit="10" stroke-linecap="round" stroke-linejoin="round"/>
<path d="M207.742 154.247C173.969 144.123 151.321 126.311 140.186 115.827C136.521 112.376 130.824 112.376 127.159 115.827C116.023 126.311 93.3763 144.123 59.6023 154.247C55.3019 155.536 52.4896 159.658 52.8733 164.132C54.6275 184.601 65.225 241.427 127.423 295.685C131 298.806 136.343 298.806 139.921 295.685C202.118 241.427 212.716 184.601 214.47 164.132C214.855 159.658 212.042 155.536 207.742 154.247Z" fill="#E67E22" stroke="#18313E" stroke-miterlimit="10" stroke-linecap="round" stroke-linejoin="round"/>
<path d="M193.473 162.756C167.313 154.647 149.42 141.005 140.063 132.406C136.456 129.091 130.888 129.091 127.281 132.406C117.925 141.005 100.031 154.647 73.8723 162.756C69.5315 164.101 66.7043 168.27 67.1635 172.791C68.9801 190.673 78.5002 235.622 127.381 278.822C130.97 281.993 136.376 281.993 139.965 278.822C188.846 235.622 198.366 190.673 200.182 172.791C200.641 168.27 197.813 164.102 193.473 162.756Z" fill="#18313E" stroke="#18313E" stroke-miterlimit="10"/>
<path d="M193.473 162.756C174.002 156.72 159.112 147.62 148.911 139.814C142.672 135.041 133.672 139.504 133.672 147.36V262.811C133.672 271.239 143.87 275.509 149.838 269.558C190.164 229.345 198.495 189.397 200.182 172.792C200.641 168.27 197.814 164.102 193.473 162.756Z" fill="white" stroke="#18313E" stroke-miterlimit="10" stroke-linecap="round" stroke-linejoin="round"/>
<path d="M148.683 214.455C156.301 206.838 156.301 194.488 148.683 186.87C141.066 179.253 128.716 179.253 121.099 186.87C113.481 194.488 113.481 206.838 121.099 214.455C128.716 222.073 141.066 222.073 148.683 214.455Z" fill="white" stroke="#18313E" stroke-width="3" stroke-miterlimit="10" stroke-linecap="round" stroke-linejoin="round"/>
<path d="M136.286 208.85C135.009 208.835 133.815 208.277 132.995 207.32L124.432 197.33C122.86 195.496 123.073 192.724 124.907 191.153C125.701 190.472 126.713 190.098 127.757 190.098C129.038 190.098 130.251 190.656 131.085 191.627L136.399 197.827L153.996 178.23C154.826 177.307 156.015 176.777 157.257 176.777C158.339 176.777 159.377 177.175 160.182 177.898C161.053 178.68 161.568 179.754 161.63 180.922C161.693 182.091 161.298 183.214 160.515 184.085L139.583 207.396C138.753 208.319 137.565 208.85 136.324 208.85H136.286Z" fill="#E67E22"/>
<path d="M157.255 178.094C157.984 178.094 158.715 178.352 159.301 178.878C160.56 180.008 160.664 181.946 159.533 183.204L138.601 206.515C138.02 207.162 137.191 207.532 136.322 207.532C136.31 207.532 136.298 207.532 136.287 207.532C135.404 207.521 134.569 207.132 133.996 206.463L125.433 196.472C124.332 195.186 124.48 193.252 125.766 192.151C126.343 191.656 127.053 191.414 127.758 191.414C128.622 191.414 129.479 191.776 130.085 192.483L136.376 199.822L154.976 179.109C155.579 178.438 156.415 178.094 157.255 178.094ZM157.255 175.46C155.64 175.46 154.093 176.15 153.014 177.35L136.42 195.83L132.083 190.77C130.998 189.506 129.422 188.78 127.755 188.78C126.397 188.78 125.081 189.268 124.049 190.152C121.664 192.197 121.386 195.801 123.43 198.186L131.994 208.177C133.062 209.422 134.614 210.147 136.254 210.167H136.27H136.321C137.936 210.167 139.481 209.478 140.56 208.276L161.493 184.966C162.51 183.833 163.025 182.373 162.944 180.853C162.862 179.333 162.193 177.936 161.061 176.919C160.013 175.978 158.662 175.46 157.255 175.46Z" fill="#18313E"/>
<path d="M350.301 398.594C350.301 398.594 347.266 403.219 344.788 405.17C342.31 407.121 336.502 409.931 334.881 411.239C333.261 412.548 333.977 413.714 334.537 414.275C335.098 414.837 342.571 415.249 346.642 415.256C350.714 415.263 358.073 413.526 358.073 413.526C358.073 413.526 361.321 414.045 362.142 413.635C362.964 413.225 363.489 412.3 363.618 410.86C363.745 409.42 363.28 401.291 363.28 401.291L350.301 398.594Z" fill="white" stroke="#18313E" stroke-miterlimit="10" stroke-linecap="round" stroke-linejoin="round"/>
<path d="M359.028 411.366C355.864 411.875 355.241 412.594 349.117 413.51C344.074 414.264 336.606 413.336 333.888 412.853C333.866 413.461 334.225 413.962 334.537 414.275C335.098 414.837 342.571 415.248 346.642 415.255C350.714 415.262 358.073 413.525 358.073 413.525C358.073 413.525 361.321 414.045 362.143 413.635C362.957 413.228 363.48 412.313 363.613 410.893C362.575 410.942 360.914 411.062 359.028 411.366Z" fill="#18313E" stroke="#18313E" stroke-miterlimit="10" stroke-linecap="round" stroke-linejoin="round"/>
<path d="M352.94 402.014C352.94 402.014 349.429 400.446 347.063 403.078" stroke="#18313E" stroke-width="2" stroke-miterlimit="10" stroke-linecap="round" stroke-linejoin="round"/>
<path d="M348.94 400.687C348.94 400.687 351.642 402.797 351.281 405.045" stroke="#18313E" stroke-width="2" stroke-miterlimit="10" stroke-linecap="round" stroke-linejoin="round"/>
<path d="M350.32 404.449C350.32 404.449 347.557 403.167 345.676 405.363" stroke="#18313E" stroke-width="2" stroke-miterlimit="10" stroke-linecap="round" stroke-linejoin="round"/>
<path d="M347.17 403.369C347.17 403.369 349.29 405.106 348.992 406.971" stroke="#18313E" stroke-width="2" stroke-miterlimit="10" stroke-linecap="round" stroke-linejoin="round"/>
<path d="M348.288 406.93C348.288 406.93 345.732 405.723 341.713 407.143" stroke="#18313E" stroke-width="2" stroke-miterlimit="10" stroke-linecap="round" stroke-linejoin="round"/>
<path d="M345.09 405.833C345.09 405.833 346.493 407.309 344.731 408.642" stroke="#18313E" stroke-width="2" stroke-miterlimit="10" stroke-linecap="round" stroke-linejoin="round"/>
<path d="M370.332 403.002C370.332 403.002 368.83 408.374 368.288 409.122C367.745 409.871 364.172 414.358 364.143 415.963C364.114 417.568 365.257 418.746 368.102 419.393C370.948 420.04 375.39 420.261 378.911 418.662C382.432 417.063 384.029 416.53 384.92 414.071C385.811 411.612 385.217 403.372 385.217 403.372C385.217 403.372 374.204 395.279 370.332 403.002Z" fill="white" stroke="#18313E" stroke-miterlimit="10" stroke-linecap="round" stroke-linejoin="round"/>
<path d="M384.92 414.071C385.23 413.215 385.36 411.659 385.399 409.994C384.79 410.94 383.888 412.246 382.923 413.318C381.195 415.241 378.193 417.377 372.47 417.794C368.267 418.102 365.479 416.279 364.291 415.288C364.2 415.544 364.145 415.774 364.142 415.962C364.113 417.567 365.256 418.745 368.101 419.392C370.948 420.039 375.389 420.26 378.91 418.661C382.432 417.062 384.029 416.53 384.92 414.071Z" fill="#18313E" stroke="#18313E" stroke-miterlimit="10" stroke-linecap="round" stroke-linejoin="round"/>
<path d="M378.084 401.177C378.084 401.177 373.266 400.942 371.756 403.775" stroke="#18313E" stroke-width="2" stroke-miterlimit="10" stroke-linecap="round" stroke-linejoin="round"/>
<path d="M372.81 401.282C372.81 401.282 376.944 402.196 377.582 404.124" stroke="#18313E" stroke-width="2" stroke-miterlimit="10" stroke-linecap="round" stroke-linejoin="round"/>
<path d="M377.124 404.69C377.124 404.69 372.305 404.456 370.796 407.287" stroke="#18313E" stroke-width="2" stroke-miterlimit="10" stroke-linecap="round" stroke-linejoin="round"/>
<path d="M371.851 404.795C371.851 404.795 375.984 405.709 376.623 407.638" stroke="#18313E" stroke-width="2" stroke-miterlimit="10" stroke-linecap="round" stroke-linejoin="round"/>
<path d="M376.163 408.204C376.163 408.204 371.345 407.97 369.835 410.801" stroke="#18313E" stroke-width="2" stroke-miterlimit="10" stroke-linecap="round" stroke-linejoin="round"/>
<path d="M370.89 408.309C370.89 408.309 375.024 409.223 375.662 411.151" stroke="#18313E" stroke-width="2" stroke-miterlimit="10" stroke-linecap="round" stroke-linejoin="round"/>
<path d="M341.517 297.521C341.517 297.521 343.368 325.451 344.168 333.291C344.968 341.13 346.887 359.209 347.047 359.689C347.207 360.169 347.687 366.569 347.687 366.569C347.687 366.569 347.207 369.128 347.847 374.728C348.487 380.328 350.406 392.007 350.406 392.007C350.406 392.007 348.807 392.326 348.966 393.607C349.126 394.887 349.766 398.407 349.766 398.407C349.766 398.407 355.846 400.487 357.606 400.646C359.365 400.806 362.885 400.646 362.885 400.646C362.885 400.646 364.325 398.247 364.165 396.967C364.006 395.687 362.885 392.327 362.885 392.327L363.685 382.888L364.966 344.331C364.966 344.331 369.925 381.928 370.725 384.647C371.525 387.367 372.325 391.687 372.325 391.687C372.325 391.687 370.725 392.967 370.725 393.767C370.725 394.567 371.045 400.167 371.045 400.167C371.045 400.167 374.245 397.608 377.285 398.087C380.324 398.567 385.285 402.086 385.285 402.086C385.285 402.086 385.604 399.366 386.245 397.286C386.885 395.206 385.604 389.927 385.284 388.487C384.964 387.047 384.804 384.967 385.124 383.527C385.444 382.087 385.604 377.608 385.764 376.168C385.924 374.728 385.605 338.89 385.605 338.89L388.873 297.841L342.316 296.401L341.517 297.521Z" fill="#18313E" stroke="#18313E" stroke-miterlimit="10" stroke-linecap="round" stroke-linejoin="round"/>
<path d="M348.712 237.143C348.712 237.143 342.754 248.277 341.197 251.479C339.64 254.681 337.835 258.279 337.835 258.279C332.162 250.069 326.539 241.901 320.392 234.042L319.022 232.443C319.022 232.443 311.35 229.55 310.629 230.244C309.907 230.939 308.18 241.763 309.86 243.402C311.541 245.041 318.635 246.014 318.635 246.014L319.976 247.413L319.799 247.58C319.799 247.58 330.531 271.405 332.262 273.033C333.992 274.66 336.03 277.54 339.774 277.717C341.917 277.818 349.162 262.485 349.162 262.485L348.712 237.143Z" fill="white" stroke="#18313E" stroke-miterlimit="10" stroke-linecap="round" stroke-linejoin="round"/>
<path d="M348 236.979L338.793 253.072L346.067 270.402L350.56 261.202C350.56 261.202 353.127 235.956 351.202 235.742C349.277 235.527 348 236.979 348 236.979Z" fill="white" stroke="#18313E" stroke-miterlimit="10" stroke-linecap="round" stroke-linejoin="round"/>
<path d="M336.44 255.211C336.44 255.211 343.714 274.681 344.57 274.681C345.426 274.681 347.994 270.83 347.779 268.904C347.565 266.979 341.789 251.788 339.863 251.574C337.938 251.36 337.296 253.285 336.44 255.211Z" fill="white" stroke="#18313E" stroke-miterlimit="10" stroke-linecap="round" stroke-linejoin="round"/>
<path d="M323.246 237.571C323.246 237.571 320.684 233.125 320.396 231.316C319.948 228.512 323.178 226.762 321.686 226.094C320.195 225.426 317.453 227.355 317.191 229.372C316.927 231.39 317.349 233.171 317.349 233.171C317.349 233.171 315.906 235.824 316.276 237.767C316.646 239.71 317.632 241.889 318.388 242.145" fill="white"/>
<path d="M323.246 237.571C323.246 237.571 320.684 233.125 320.396 231.316C319.948 228.512 323.178 226.762 321.686 226.094C320.195 225.426 317.453 227.355 317.191 229.372C316.927 231.39 317.349 233.171 317.349 233.171C317.349 233.171 315.906 235.824 316.276 237.767C316.646 239.71 317.632 241.889 318.388 242.145" stroke="#18313E" stroke-miterlimit="10" stroke-linecap="round" stroke-linejoin="round"/>
<path d="M309.497 228.027C309.497 228.027 307.731 227.57 307.214 229.474C306.876 230.719 307.27 231.406 308.16 231.838C309.051 232.27 313.944 235.078 314.436 233.722C314.929 232.365 315.401 231.164 314.376 230.557C313.349 229.95 309.497 228.027 309.497 228.027Z" fill="white" stroke="#18313E" stroke-miterlimit="10" stroke-linecap="round" stroke-linejoin="round"/>
<path d="M308.879 232.069C308.879 232.069 307.114 231.612 306.597 233.516C306.259 234.761 306.653 235.449 307.543 235.881C308.433 236.313 313.327 239.122 313.819 237.765C314.312 236.408 314.784 235.207 313.759 234.601C312.733 233.992 308.879 232.069 308.879 232.069Z" fill="white" stroke="#18313E" stroke-miterlimit="10" stroke-linecap="round" stroke-linejoin="round"/>
<path d="M308.468 236.227C308.468 236.227 306.966 235.837 306.526 237.457C306.238 238.517 306.573 239.1 307.331 239.468C308.089 239.835 312.251 242.225 312.67 241.072C313.089 239.918 313.491 238.896 312.618 238.38C311.745 237.862 308.468 236.227 308.468 236.227Z" fill="white" stroke="#18313E" stroke-miterlimit="10" stroke-linecap="round" stroke-linejoin="round"/>
<path d="M308.631 239.922C308.631 239.922 307.293 239.575 306.902 241.019C306.645 241.963 306.944 242.483 307.619 242.811C308.294 243.138 312.002 245.267 312.375 244.239C312.748 243.21 313.107 242.3 312.329 241.84C311.552 241.38 308.631 239.922 308.631 239.922Z" fill="white" stroke="#18313E" stroke-miterlimit="10" stroke-linecap="round" stroke-linejoin="round"/>
<path d="M358.574 228.669C358.574 228.669 348.686 233.201 348 234.849C347.313 236.497 344.017 269.182 342.094 282.229C340.172 295.275 340.995 298.781 340.995 298.781C340.995 298.781 343.055 303.038 363.243 302.352C383.431 301.665 390.572 298.644 390.846 296.858C391.121 295.073 391.396 297.336 391.396 296.099C391.396 294.863 392.907 236.497 391.396 232.926C389.886 229.356 381.371 223.45 378.898 223.175C376.428 222.9 358.574 228.669 358.574 228.669Z" fill="#E67E22" stroke="#18313E" stroke-miterlimit="10" stroke-linecap="round" stroke-linejoin="round"/>
<path d="M342.117 284.202C342.109 284.254 342.102 284.308 342.094 284.359C341.76 286.627 341.526 288.68 341.359 290.544C346.232 291.537 358.779 293.702 372.18 292.882C382.694 292.239 388.563 291.858 391.539 291.659C391.577 289.864 391.621 287.771 391.667 285.466C384.647 286.185 357.166 288.608 342.117 284.202Z" fill="white" stroke="#18313E" stroke-miterlimit="10" stroke-linecap="round" stroke-linejoin="round"/>
<path d="M375.226 255.942C375.676 253.401 377.964 240.963 380.92 232.999L385.738 236.194L390.53 236.311C390.53 236.311 379.777 226.844 376.738 226.025C376.37 225.926 375.729 225.924 374.894 225.995C368.856 227.477 358.575 230.798 358.575 230.798C358.575 230.798 348.687 235.33 348 236.978C347.896 237.229 347.73 238.208 347.518 239.726C348.207 239.331 349.056 238.849 349.991 238.322L347.007 253.941C346.525 253.825 346.051 253.704 345.59 253.576C345.354 255.632 345.111 257.752 344.864 259.887C350.066 260.919 362.195 262.91 375.143 262.117C383.281 261.619 388.627 261.279 392.012 261.058C392.032 258.99 392.048 256.942 392.058 254.948C388.194 255.3 382.062 255.767 375.226 255.942ZM349.862 254.543L353.519 236.356C358.086 233.84 363.346 231.073 365.634 230.35C370.076 228.948 374.283 228.597 374.283 228.597L376.818 230.278C376.527 231.03 371.112 245.067 369.675 255.95L370.408 256.012C363.388 256.032 356.033 255.673 349.862 254.543Z" fill="white" stroke="#18313E" stroke-miterlimit="10" stroke-linecap="round" stroke-linejoin="round"/>
<path d="M349.34 295.148C349.409 296.393 349.51 297.607 349.647 298.781" stroke="#18313E" stroke-miterlimit="10"/>
<path d="M352.448 268.028C351.024 276.32 349.045 282.724 349.238 292.413" stroke="#18313E" stroke-miterlimit="10"/>
<path d="M354.867 255.656C354.867 255.656 353.84 259.942 352.696 266.289" stroke="#18313E" stroke-miterlimit="10"/>
<path d="M343.916 298.001C343.916 298.001 335.437 296.721 334.957 297.681C334.477 298.641 334.957 311.76 335.757 312.56C336.557 313.36 341.997 314.48 343.597 313.52C345.196 312.56 346.157 311.92 346.477 311.12C346.796 310.32 346.796 300.241 346.157 298.961C345.516 297.681 343.916 298.001 343.916 298.001Z" fill="#18313E" stroke="#18313E" stroke-miterlimit="10" stroke-linecap="round" stroke-linejoin="round"/>
<path d="M353.996 299.601C353.996 299.601 352.716 312.56 354.796 313.36C356.876 314.16 361.195 314.48 361.995 314.32C362.795 314.16 365.675 313.679 366.155 312.399C366.635 311.119 366.635 301.04 366.315 300.08C365.994 299.121 354.796 298.321 353.996 299.601Z" fill="#18313E" stroke="#18313E" stroke-miterlimit="10" stroke-linecap="round" stroke-linejoin="round"/>
<path d="M374.154 301.041C374.154 301.041 374.794 315.6 375.113 316.24C375.433 316.88 381.513 320.879 382.633 320.719C383.753 320.56 392.712 319.599 393.192 317.84C393.673 316.079 394.792 301.841 393.832 300.241C392.873 298.641 390.793 298.001 388.873 297.841C386.952 297.682 375.754 299.281 375.754 299.281C375.754 299.281 374.314 299.281 374.154 301.041Z" fill="#18313E" stroke="#18313E" stroke-miterlimit="10" stroke-linecap="round" stroke-linejoin="round"/>
<path d="M362.694 225.03L358.574 228.668L358.437 232.859L355.141 253.458C355.141 253.458 374.642 228.052 374.917 227.64C375.191 227.228 378.899 225.305 378.899 225.305L377.663 220.224L375.603 220.774L362.694 225.03Z" fill="white" stroke="#18313E" stroke-miterlimit="10" stroke-linecap="round" stroke-linejoin="round"/>
<path d="M358.574 228.669L361.329 234.121L361.76 229.949L364.121 235.738L372.056 229.272" stroke="#18313E" stroke-miterlimit="10" stroke-linecap="round" stroke-linejoin="round"/>
<path d="M359.939 195.379C359.939 195.379 358.153 198.78 358.069 199.266C357.986 199.753 358.027 201.263 358.027 201.263C358.027 201.263 353.557 205.707 353.702 206.032C353.847 206.357 355.575 206.941 355.575 206.941C355.575 206.941 353.934 218.279 354.89 218.543C355.847 218.807 362.737 218.204 362.737 218.204L361.76 229.949L376.476 221.456L378.15 213.634C378.15 213.634 382.895 209.338 383.329 206.807C383.763 204.276 383.458 203.722 383.458 203.722L359.939 195.379Z" fill="white" stroke="#18313E" stroke-miterlimit="10" stroke-linecap="round" stroke-linejoin="round"/>
<path d="M383.457 203.722L368.417 198.387L368.345 199.526L366.842 204.779C366.842 204.779 371.415 202.658 372.26 202.402C373.106 202.146 374.196 205.139 373.036 206.643C371.876 208.148 368.572 209.886 368.572 209.886C368.572 209.886 371.216 213.746 374.492 214.509C375.834 214.821 376.998 214.867 377.91 214.813L378.149 213.633C378.149 213.633 382.895 209.337 383.328 206.806C383.763 204.275 383.457 203.722 383.457 203.722Z" fill="#18313E" stroke="#18313E" stroke-miterlimit="10" stroke-linecap="round" stroke-linejoin="round"/>
<path d="M359.092 199.142C359.092 199.142 360.622 198.402 361.929 200.13" stroke="#18313E" stroke-miterlimit="10" stroke-linecap="round" stroke-linejoin="round"/>
<path d="M360.102 202.021C359.991 202.666 359.684 203.152 359.414 203.105C359.146 203.059 359.018 202.498 359.128 201.854C359.239 201.209 359.546 200.723 359.816 200.77C360.084 200.815 360.212 201.375 360.102 202.021Z" fill="#18313E"/>
<path d="M354.799 218.29L366.099 217.879L362.612 221.18L362.736 218.204L354.799 218.29Z" fill="#18313E" stroke="#18313E" stroke-miterlimit="10" stroke-linecap="round" stroke-linejoin="round"/>
<path d="M374.252 203.646L377.911 214.814L380.898 212.803L377.416 203.888L374.252 203.646Z" fill="white" stroke="#18313E" stroke-miterlimit="10" stroke-linecap="round" stroke-linejoin="round"/>
<path d="M358.429 192.718C358.429 192.718 351.412 192.44 352.213 192.869C353.015 193.299 386.562 210.284 386.562 210.284C386.562 210.284 386.291 207.613 386.438 206.763C386.584 205.913 388.948 200.63 389.353 194.866C389.759 189.102 378.322 183.88 372.47 182.292C366.616 180.705 363.155 183.028 362.054 186.047C360.951 189.067 358.429 192.718 358.429 192.718Z" fill="#E67E22" stroke="#18313E" stroke-miterlimit="10" stroke-linecap="round" stroke-linejoin="round"/>
<path d="M367.752 197.374L361.882 194.048C361.882 194.048 366.928 186.411 366.974 185.388C367.021 184.365 367.171 183.49 367.171 183.49C367.171 183.49 367.575 181.885 372.974 183.455" stroke="#18313E" stroke-miterlimit="10" stroke-linecap="round" stroke-linejoin="round"/>
<path d="M355.139 207.604C355.139 207.604 357.293 207.003 358.671 207.504C360.049 208.004 360.361 209.014 360.923 208.911C361.484 208.809 364.863 208.067 361.307 210.41C359.975 211.287 358.775 211.004 357.733 210.881C356.692 210.759 355.387 210.319 355.387 210.319C355.387 210.319 354.066 209.244 355.139 207.604Z" fill="#18313E" stroke="#18313E" stroke-miterlimit="10" stroke-linecap="round" stroke-linejoin="round"/>
<path d="M381.036 296.501C381.036 296.501 379.652 298.034 378.071 298.789C378.071 298.789 378.277 299.476 377.521 300.094" stroke="#18313E" stroke-miterlimit="10" stroke-linecap="round" stroke-linejoin="round"/>
<path d="M411.427 262.39C408.46 254.98 403.736 248.421 399.776 241.494C398.494 239.255 397.274 236.946 395.571 234.997C393.867 233.056 391.593 231.476 389.021 231.186C388.977 231.186 388.933 231.177 388.889 231.177C387.037 231.011 385.061 231.616 383.726 232.925C382.243 234.365 381.751 235.831 381.461 237.868C380.829 242.284 381.637 246.911 383.797 250.827C386.044 254.901 389.539 258.044 392.805 261.381C393.762 262.355 394.693 263.339 395.571 264.375C389.855 271.627 384.139 278.888 378.415 286.14C378.072 286.57 377.73 287.009 377.519 287.519C377.518 287.521 377.518 287.524 377.516 287.527C377.375 287.534 377.285 287.541 377.285 287.541L372.435 290.336C372.435 290.336 368.857 292.765 368.793 293.978C368.659 296.548 369.618 297.62 370.401 298.859C370.401 298.859 372.367 300.934 373.603 301.605C374.375 302.024 376.242 302.751 377.492 301.71C378.742 300.668 382.493 299.626 382.701 297.959C382.909 296.292 381.035 296.501 381.035 296.501C381.035 296.501 382.8 295.271 383.215 292.429C383.766 292.309 384.307 292.133 384.813 291.899C386.482 291.144 387.886 289.932 389.291 288.756C395.639 283.453 402.452 278.729 408.906 273.566C410.126 272.592 411.364 271.565 412.04 270.16C413.201 267.746 412.428 264.875 411.427 262.39Z" fill="white" stroke="#18313E" stroke-miterlimit="10" stroke-linecap="round" stroke-linejoin="round"/>
<path d="M411.427 262.39C411.427 262.39 406.616 259.493 401.049 259.273C397.432 259.133 394.447 260.45 392.805 261.381C389.539 258.044 386.044 254.901 383.797 250.827C381.637 246.911 380.829 242.284 381.461 237.868C381.751 235.831 382.242 234.365 383.726 232.925C385.061 231.616 387.036 231.011 388.889 231.177C388.933 231.177 388.977 231.186 389.021 231.186C391.593 231.476 393.867 233.056 395.571 234.997C397.274 236.946 398.494 239.255 399.776 241.494C403.736 248.421 408.46 254.98 411.427 262.39Z" fill="white" stroke="#18313E" stroke-miterlimit="10" stroke-linecap="round" stroke-linejoin="round"/>
<path d="M393.138 266.979C393.138 266.979 398.272 263.128 402.551 263.555C406.831 263.983 411.538 267.621 412.18 267.406C412.821 267.192 414.747 265.267 414.105 263.127C413.463 260.987 413.249 259.704 412.18 257.351C411.11 254.997 406.617 253.713 402.338 254.783C398.059 255.853 391.212 260.774 391.426 262.272C391.64 263.77 393.138 266.979 393.138 266.979Z" fill="white" stroke="#18313E" stroke-miterlimit="10" stroke-linecap="round" stroke-linejoin="round"/>
</svg>
